<?xml version="1.0" encoding="utf-8" ?>
<svg xmlns="http://www.w3.org/2000/svg" xmlns:xlink="http://www.w3.org/1999/xlink" width="437" height="437">
	<path fill="#333060" transform="matrix(0.426758 0 0 0.426758 -3.05176e-05 0)" d="M-0 -0L1024 0L1024 1024L-0 1024L0 -0Z"/>
	<path fill="#F5865F" transform="matrix(0.426758 0 0 0.426758 -3.05176e-05 0)" d="M703.976 47.9778L783.991 47.9818L783.956 111.996L703.984 112.006L703.976 47.9778Z"/>
	<path fill="#F5865F" transform="matrix(0.426758 0 0 0.426758 -3.05176e-05 0)" d="M671.963 47.9871L703.976 47.9778L703.984 112.006L671.97 111.997L591.984 112.006L591.975 47.9764L671.963 47.9871Z"/>
	<path fill="#E74E63" transform="matrix(0.426758 0 0 0.426758 -3.05176e-05 0)" d="M671.963 47.9871L703.976 47.9778L703.984 112.006L671.97 111.997L671.963 47.9871Z"/>
	<path fill="#F5865F" transform="matrix(0.426758 0 0 0.426758 -3.05176e-05 0)" d="M47.9902 208.053L112.015 208.041L112.024 240.059L112.019 320.031L47.9882 320.048L47.9819 239.973L47.9902 208.053Z"/>
	<path fill="#E74E63" transform="matrix(0.426758 0 0 0.426758 -3.05176e-05 0)" d="M47.9902 208.053L112.015 208.041L112.024 240.059L47.9819 239.973L47.9902 208.053Z"/>
	<path fill="#F5865F" transform="matrix(0.426758 0 0 0.426758 -3.05176e-05 0)" d="M47.9882 320.048L112.019 320.031L112.032 352.047L112.019 432.031L47.9876 432.043L47.98 351.971L47.9882 320.048Z"/>
	<path fill="#E74E63" transform="matrix(0.426758 0 0 0.426758 -3.05176e-05 0)" d="M47.9882 320.048L112.019 320.031L112.032 352.047L47.98 351.971L47.9882 320.048Z"/>
	<path fill="#F5865F" transform="matrix(0.426758 0 0 0.426758 -3.05176e-05 0)" d="M47.9873 672.046L112.019 672.037L112.024 704.057L112.017 784.032L47.9885 784.045L47.9809 703.98L47.9873 672.046Z"/>
	<path fill="#E74E63" transform="matrix(0.426758 0 0 0.426758 -3.05176e-05 0)" d="M47.9873 672.046L112.019 672.037L112.024 704.057L47.9809 703.98L47.9873 672.046Z"/>
	<path fill="#F5865F" transform="matrix(0.426758 0 0 0.426758 -3.05176e-05 0)" d="M47.987 560.042L112.024 560.032L112.029 592.049L112.019 672.037L47.9873 672.046L47.9783 591.977L47.987 560.042Z"/>
	<path fill="#E74E63" transform="matrix(0.426758 0 0 0.426758 -3.05176e-05 0)" d="M47.987 560.042L112.024 560.032L112.029 592.049L47.9783 591.977L47.987 560.042Z"/>
	<path fill="#F5865F" transform="matrix(0.426758 0 0 0.426758 -3.05176e-05 0)" d="M559.996 47.9822L591.975 47.9764L591.984 112.006L559.967 112L463.971 112.009L463.978 47.9755L559.996 47.9822Z"/>
	<path fill="#E74E63" transform="matrix(0.426758 0 0 0.426758 -3.05176e-05 0)" d="M559.996 47.9822L591.975 47.9764L591.984 112.006L559.967 112L559.996 47.9822Z"/>
	<path fill="#F5865F" transform="matrix(0.426758 0 0 0.426758 -3.05176e-05 0)" d="M47.9876 432.043L112.019 432.031L112.028 464.028L112.024 560.032L47.987 560.042L47.9773 463.976L47.9876 432.043Z"/>
	<path fill="#E74E63" transform="matrix(0.426758 0 0 0.426758 -3.05176e-05 0)" d="M47.9876 432.043L112.019 432.031L112.028 464.028L47.9773 463.976L47.9876 432.043Z"/>
	<path fill="#F5865F" transform="matrix(0.426758 0 0 0.426758 -3.05176e-05 0)" d="M351.979 47.9768L431.995 47.9809L463.978 47.9755L463.971 112.009L431.977 112.001L351.983 112.007L320.016 112.001L319.989 47.9821L351.979 47.9768Z"/>
	<path fill="#E74E63" transform="matrix(0.426758 0 0 0.426758 -3.05176e-05 0)" d="M431.995 47.9809L463.978 47.9755L463.971 112.009L431.977 112.001L431.995 47.9809Z"/>
	<path fill="#E74E63" transform="matrix(0.426758 0 0 0.426758 -3.05176e-05 0)" d="M319.989 47.9821L351.979 47.9768L351.983 112.007L320.016 112.001L319.989 47.9821Z"/>
	<path fill="#F5865F" transform="matrix(0.426758 0 0 0.426758 -3.05176e-05 0)" d="M47.9902 208.053L47.9689 47.989L207.998 47.9816L207.968 111.999L112.001 112.011L112.015 208.041L47.9902 208.053Z"/>
	<path fill="#F5865F" transform="matrix(0.426758 0 0 0.426758 -3.05176e-05 0)" d="M47.9885 784.045L112.017 784.032L112.027 816.006L112.004 912.011L207.964 911.99L208.008 976.003L47.985 976.018L47.9812 815.967L47.9885 784.045Z"/>
	<path fill="#E74E63" transform="matrix(0.426758 0 0 0.426758 -3.05176e-05 0)" d="M47.9885 784.045L112.017 784.032L112.027 816.006L47.9812 815.967L47.9885 784.045Z"/>
	<path fill="#F5865F" transform="matrix(0.426758 0 0 0.426758 -3.05176e-05 0)" d="M783.991 47.9818L815.978 47.9728L976.04 47.9925L976.026 208.044L911.996 208.048L912.006 111.992L815.983 112.005L783.956 111.996L783.991 47.9818Z"/>
	<path fill="#E74E63" transform="matrix(0.426758 0 0 0.426758 -3.05176e-05 0)" d="M783.991 47.9818L815.978 47.9728L815.983 112.005L783.956 111.996L783.991 47.9818Z"/>
	<path fill="#333060" transform="matrix(0.426758 0 0 0.426758 -3.05176e-05 0)" d="M207.998 47.9816L239.982 47.9768L319.989 47.9821L320.016 112.001L351.983 112.007L431.977 112.001L463.971 112.009L559.967 112L591.984 112.006L671.97 111.997L703.984 112.006L783.956 111.996L815.983 112.005L912.006 111.992L911.996 208.048L976.026 208.044L976.035 240.011L976.027 320.054L976.037 352.009L976.026 432.047L976.037 464.013L976.024 560.043L976.037 592.009L976.026 672.045L976.037 704.012L976.023 784.032L976.033 816.006L976.032 976.014L815.977 976.007L783.97 976.003L703.976 976.01L672.021 976.005L591.976 976.011L560.026 976.006L463.971 976.011L431.977 976.003L351.98 976.01L319.976 976.002L239.976 976.01L208.008 976.003L207.964 911.99L112.004 912.011L112.027 816.006L112.017 784.032L112.024 704.057L112.019 672.037L112.029 592.049L112.024 560.032L112.028 464.028L112.019 432.031L112.032 352.047L112.019 320.031L112.024 240.059L112.015 208.041L112.001 112.011L207.968 111.999L207.998 47.9816Z"/>
	<path fill="#FFFEFE" transform="matrix(0.426758 0 0 0.426758 -3.05176e-05 0)" d="M143.981 143.996L208.025 143.989L207.97 207.973L143.985 208.025L143.981 143.996Z"/>
	<path fill="#FFFEFE" transform="matrix(0.426758 0 0 0.426758 -3.05176e-05 0)" d="M816.029 207.974L815.977 143.995L880.028 143.987L880.021 208.025L816.029 207.974Z"/>
	<path fill="#FFFEFE" transform="matrix(0.426758 0 0 0.426758 -3.05176e-05 0)" d="M816.027 816.027L880.027 815.983L880.021 880.024L815.978 880.028L816.027 816.027Z"/>
	<path fill="#FFFEFE" transform="matrix(0.426758 0 0 0.426758 -3.05176e-05 0)" d="M143.983 880.027L143.977 815.994L207.977 816.029L208.027 880.027L143.983 880.027Z"/>
	<path fill="#FFFEFE" transform="matrix(0.426758 0 0 0.426758 -3.05176e-05 0)" d="M207.996 784.021L143.983 784.027L143.976 703.993L207.998 703.989L207.996 784.021Z"/>
	<path fill="#FFFEFE" transform="matrix(0.426758 0 0 0.426758 -3.05176e-05 0)" d="M207.996 320.021L143.982 320.03L143.977 239.995L208 239.99L207.996 320.021Z"/>
	<path fill="#FFFEFE" transform="matrix(0.426758 0 0 0.426758 -3.05176e-05 0)" d="M207.995 432.02L143.982 432.027L143.974 351.991L207.993 351.982L207.995 432.02Z"/>
	<path fill="#FFFEFE" transform="matrix(0.426758 0 0 0.426758 -3.05176e-05 0)" d="M207.995 672.019L143.981 672.028L143.947 612.809L143.937 598.413C143.934 596.407 143.585 593.863 144.226 591.988L207.995 591.982L207.995 672.019Z"/>
	<path fill="#FFFEFE" transform="matrix(0.426758 0 0 0.426758 -3.05176e-05 0)" d="M239.992 207.994L239.979 143.996L320.027 143.989L320.024 208L239.992 207.994Z"/>
	<path fill="#FFFEFE" transform="matrix(0.426758 0 0 0.426758 -3.05176e-05 0)" d="M351.987 816.011L432.02 816.016L432.027 880.027L351.98 880.027L351.987 816.011Z"/>
	<path fill="#FFFEFE" transform="matrix(0.426758 0 0 0.426758 -3.05176e-05 0)" d="M703.992 208L703.976 143.997L765.405 143.962C768.603 143.96 781.93 143.182 784.024 144.239L784.027 207.999L703.992 208Z"/>
	<path fill="#FFFEFE" transform="matrix(0.426758 0 0 0.426758 -3.05176e-05 0)" d="M239.98 816.017L320.017 816.013L320.026 880.028L239.979 880.031L239.98 816.017Z"/>
	<path fill="#FFFEFE" transform="matrix(0.426758 0 0 0.426758 -3.05176e-05 0)" d="M351.994 208L351.977 143.994L431.776 143.984C432.351 145.691 432.064 147.926 432.061 149.727L432.054 160.237L432.024 208.001L351.994 208Z"/>
	<path fill="#FFFEFE" transform="matrix(0.426758 0 0 0.426758 -3.05176e-05 0)" d="M703.979 816.016L784.022 816.019L784.025 880.028L703.975 880.032L703.979 816.016Z"/>
	<path fill="#FFFEFE" transform="matrix(0.426758 0 0 0.426758 -3.05176e-05 0)" d="M591.992 207.999L591.974 143.996L672.027 143.987L672.026 208.002L591.992 207.999Z"/>
	<path fill="#FFFEFE" transform="matrix(0.426758 0 0 0.426758 -3.05176e-05 0)" d="M816.003 703.992L880.029 703.983L880.022 784.028L816.017 784.023L816.003 703.992Z"/>
	<path fill="#FFFEFE" transform="matrix(0.426758 0 0 0.426758 -3.05176e-05 0)" d="M816.005 239.988L880.028 239.984L880.024 320.029L816.014 320.021L816.005 239.988Z"/>
	<path fill="#FFFEFE" transform="matrix(0.426758 0 0 0.426758 -3.05176e-05 0)" d="M591.982 816.009L672.022 816.017L672.029 880.031L591.979 880.032L591.982 816.009Z"/>
	<path fill="#FFFEFE" transform="matrix(0.426758 0 0 0.426758 -3.05176e-05 0)" d="M816.006 591.987L880.029 591.983L880.025 672.028L816.019 672.023L816.006 591.987Z"/>
	<path fill="#FFFEFE" transform="matrix(0.426758 0 0 0.426758 -3.05176e-05 0)" d="M816.005 351.987L880.028 351.983L880.023 432.028L816.015 432.018L816.005 351.987Z"/>
	<path fill="#FFFEFE" transform="matrix(0.426758 0 0 0.426758 -3.05176e-05 0)" d="M207.992 560.026L143.98 560.032L143.973 463.993L207.998 463.988L207.992 560.026Z"/>
	<path fill="#FFFEFE" transform="matrix(0.426758 0 0 0.426758 -3.05176e-05 0)" d="M463.992 207.999L463.973 143.993L560.026 143.985L560.025 208.001L463.992 207.999Z"/>
	<path fill="#FFFEFE" transform="matrix(0.426758 0 0 0.426758 -3.05176e-05 0)" d="M463.982 816.011L560.02 816.014L560.027 880.03L463.977 880.031L463.982 816.011Z"/>
	<path fill="#FFFEFE" transform="matrix(0.426758 0 0 0.426758 -3.05176e-05 0)" d="M816.003 463.992L880.028 463.984L880.023 560.027L816.017 560.021L816.003 463.992Z"/>
	<path fill="#F5865F" transform="matrix(0.426758 0 0 0.426758 -3.05176e-05 0)" d="M207.998 47.9816L239.982 47.9768L319.989 47.9821L320.016 112.001L240.047 112.004L207.968 111.999L207.998 47.9816Z"/>
	<path fill="#E74E63" transform="matrix(0.426758 0 0 0.426758 -3.05176e-05 0)" d="M207.998 47.9816L239.982 47.9768L240.047 112.004L207.968 111.999L207.998 47.9816Z"/>
	<path fill="#F5865F" transform="matrix(0.426758 0 0 0.426758 -3.05176e-05 0)" d="M431.959 911.992L463.977 911.977L463.971 976.011L431.977 976.003L351.98 976.01L351.982 911.982L431.959 911.992Z"/>
	<path fill="#E74E63" transform="matrix(0.426758 0 0 0.426758 -3.05176e-05 0)" d="M431.959 911.992L463.977 911.977L463.971 976.011L431.977 976.003L431.959 911.992Z"/>
	<path fill="#F5865F" transform="matrix(0.426758 0 0 0.426758 -3.05176e-05 0)" d="M671.974 911.982L703.991 911.975L703.976 976.01L672.021 976.005L591.976 976.011L591.987 911.98L671.974 911.982Z"/>
	<path fill="#E74E63" transform="matrix(0.426758 0 0 0.426758 -3.05176e-05 0)" d="M671.974 911.982L703.991 911.975L703.976 976.01L672.021 976.005L671.974 911.982Z"/>
	<path fill="#F5865F" transform="matrix(0.426758 0 0 0.426758 -3.05176e-05 0)" d="M783.964 911.985L816.018 911.981L815.977 976.007L783.97 976.003L703.976 976.01L703.991 911.975L783.964 911.985Z"/>
	<path fill="#E74E63" transform="matrix(0.426758 0 0 0.426758 -3.05176e-05 0)" d="M783.964 911.985L816.018 911.981L815.977 976.007L783.97 976.003L783.964 911.985Z"/>
	<path fill="#F5865F" transform="matrix(0.426758 0 0 0.426758 -3.05176e-05 0)" d="M911.994 672.036L976.026 672.045L976.037 704.012L976.023 784.032L911.995 784.036L911.987 703.984L911.994 672.036Z"/>
	<path fill="#E74E63" transform="matrix(0.426758 0 0 0.426758 -3.05176e-05 0)" d="M911.994 672.036L976.026 672.045L976.037 704.012L911.987 703.984L911.994 672.036Z"/>
	<path fill="#F5865F" transform="matrix(0.426758 0 0 0.426758 -3.05176e-05 0)" d="M911.993 320.035L976.027 320.054L976.037 352.009L976.026 432.047L911.993 432.031L911.985 351.985L911.993 320.035Z"/>
	<path fill="#E74E63" transform="matrix(0.426758 0 0 0.426758 -3.05176e-05 0)" d="M911.993 320.035L976.027 320.054L976.037 352.009L911.985 351.985L911.993 320.035Z"/>
	<path fill="#F5865F" transform="matrix(0.426758 0 0 0.426758 -3.05176e-05 0)" d="M911.996 208.048L976.026 208.044L976.035 240.011L976.027 320.054L911.993 320.035L911.988 239.989L911.996 208.048Z"/>
	<path fill="#E74E63" transform="matrix(0.426758 0 0 0.426758 -3.05176e-05 0)" d="M911.996 208.048L976.026 208.044L976.035 240.011L911.988 239.989L911.996 208.048Z"/>
	<path fill="#F5865F" transform="matrix(0.426758 0 0 0.426758 -3.05176e-05 0)" d="M911.994 560.033L976.024 560.043L976.037 592.009L976.026 672.045L911.994 672.036L911.986 591.992L911.994 560.033Z"/>
	<path fill="#E74E63" transform="matrix(0.426758 0 0 0.426758 -3.05176e-05 0)" d="M911.994 560.033L976.024 560.043L976.037 592.009L911.986 591.992L911.994 560.033Z"/>
	<path fill="#F5865F" transform="matrix(0.426758 0 0 0.426758 -3.05176e-05 0)" d="M559.962 911.987L591.987 911.98L591.976 976.011L560.026 976.006L463.971 976.011L463.977 911.977L559.962 911.987Z"/>
	<path fill="#E74E63" transform="matrix(0.426758 0 0 0.426758 -3.05176e-05 0)" d="M559.962 911.987L591.987 911.98L591.976 976.011L560.026 976.006L559.962 911.987Z"/>
	<path fill="#F5865F" transform="matrix(0.426758 0 0 0.426758 -3.05176e-05 0)" d="M911.993 432.031L976.026 432.047L976.037 464.013L976.024 560.043L911.994 560.033L911.988 463.988L911.993 432.031Z"/>
	<path fill="#E74E63" transform="matrix(0.426758 0 0 0.426758 -3.05176e-05 0)" d="M911.993 432.031L976.026 432.047L976.037 464.013L911.988 463.988L911.993 432.031Z"/>
	<path fill="#F5865F" transform="matrix(0.426758 0 0 0.426758 -3.05176e-05 0)" d="M319.963 911.989L351.982 911.982L351.98 976.01L319.976 976.002L239.976 976.01L208.008 976.003L207.964 911.99L239.975 911.978L319.963 911.989Z"/>
	<path fill="#E74E63" transform="matrix(0.426758 0 0 0.426758 -3.05176e-05 0)" d="M207.964 911.99L239.975 911.978L239.976 976.01L208.008 976.003L207.964 911.99Z"/>
	<path fill="#E74E63" transform="matrix(0.426758 0 0 0.426758 -3.05176e-05 0)" d="M319.963 911.989L351.982 911.982L351.98 976.01L319.976 976.002L319.963 911.989Z"/>
	<path fill="#F5865F" transform="matrix(0.426758 0 0 0.426758 -3.05176e-05 0)" d="M911.995 784.036L976.023 784.032L976.033 816.006L976.032 976.014L815.977 976.007L816.018 911.981L912.01 912.008L911.988 815.962L911.995 784.036Z"/>
	<path fill="#E74E63" transform="matrix(0.426758 0 0 0.426758 -3.05176e-05 0)" d="M911.995 784.036L976.023 784.032L976.033 816.006L911.988 815.962L911.995 784.036Z"/>
	<path fill="#F5865F" transform="matrix(0.426758 0 0 0.426758 -3.05176e-05 0)" d="M784.027 207.999L816.029 207.974L816.005 239.988L816.014 320.021L816.005 351.987L816.015 432.018L816.003 463.992L816.017 560.021L816.006 591.987L816.019 672.023L816.003 703.992L816.017 784.023L816.027 816.027L784.022 816.019L703.979 816.016L672.022 816.017L591.982 816.009L560.02 816.014L463.982 816.011L432.02 816.016L351.987 816.011L320.017 816.013L239.98 816.017L207.977 816.029L207.996 784.021L207.998 703.989L207.995 672.019L207.995 591.982L207.992 560.026L207.998 463.988L207.995 432.02L207.993 351.982L207.996 320.021L208 239.99L207.97 207.973L239.992 207.994L320.024 208L351.994 208L432.024 208.001L463.992 207.999L560.025 208.001L591.992 207.999L672.026 208.002L703.992 208L784.027 207.999Z"/>
	<path fill="#333060" transform="matrix(0.426758 0 0 0.426758 -3.05176e-05 0)" d="M592.006 352.018L671.992 352.01L671.995 431.994L592.016 432.005L592.006 352.018Z"/>
	<path fill="#333060" transform="matrix(0.426758 0 0 0.426758 -3.05176e-05 0)" d="M352.007 352.016L431.989 352.01L431.993 431.992L352.002 432.018L352.007 352.016Z"/>
	<path fill="#333060" transform="matrix(0.426758 0 0 0.426758 -3.05176e-05 0)" d="M592.004 592.016L671.994 592.006L671.997 671.996L592.016 672.008L592.004 592.016Z"/>
	<path fill="#333060" transform="matrix(0.426758 0 0 0.426758 -3.05176e-05 0)" d="M352.002 592.01L431.991 592.006L431.994 671.994L352.016 672.005L352.002 592.01Z"/>
	<path fill="#FFFEFE" transform="matrix(0.426758 0 0 0.426758 -3.05176e-05 0)" d="M239.968 703.996L320.012 703.993L320.014 784.033L239.998 784.048L239.968 703.996Z"/>
	<path fill="#FFFEFE" transform="matrix(0.426758 0 0 0.426758 -3.05176e-05 0)" d="M703.96 703.994L784.012 703.994L784.013 784.033L703.991 784.047L703.96 703.994Z"/>
	<path fill="#FFFEFE" transform="matrix(0.426758 0 0 0.426758 -3.05176e-05 0)" d="M239.968 351.995L320.016 351.991L320.021 432.029L239.996 432.044L239.968 351.995Z"/>
	<path fill="#FFFEFE" transform="matrix(0.426758 0 0 0.426758 -3.05176e-05 0)" d="M351.962 703.993L432.014 703.99L432.011 784.026L351.992 784.046L351.962 703.993Z"/>
	<path fill="#FFFEFE" transform="matrix(0.426758 0 0 0.426758 -3.05176e-05 0)" d="M239.964 591.997L320.015 591.99L320.02 672.03L239.996 672.044L239.964 591.997Z"/>
	<path fill="#FFFEFE" transform="matrix(0.426758 0 0 0.426758 -3.05176e-05 0)" d="M703.961 591.993L784.01 591.993L784.014 672.032L703.989 672.041L703.961 591.993Z"/>
	<path fill="#FFFEFE" transform="matrix(0.426758 0 0 0.426758 -3.05176e-05 0)" d="M239.966 239.997L320.016 239.993L320.02 320.036L239.994 320.044L239.966 239.997Z"/>
	<path fill="#FFFEFE" transform="matrix(0.426758 0 0 0.426758 -3.05176e-05 0)" d="M591.956 703.992L672.014 703.991L672.014 784.032L591.992 784.048L591.956 703.992Z"/>
	<path fill="#FFFEFE" transform="matrix(0.426758 0 0 0.426758 -3.05176e-05 0)" d="M703.957 351.987L784.014 351.991L784.015 432.032L703.985 432.051L703.957 351.987Z"/>
	<path fill="#FFFEFE" transform="matrix(0.426758 0 0 0.426758 -3.05176e-05 0)" d="M703.954 239.987L784.011 239.992L784.015 320.035L703.984 320.052L703.954 239.987Z"/>
	<path fill="#FFFEFE" transform="matrix(0.426758 0 0 0.426758 -3.05176e-05 0)" d="M351.959 239.992L432.016 239.99L432.019 320.032L351.986 320.049L351.959 239.992Z"/>
	<path fill="#FFFEFE" transform="matrix(0.426758 0 0 0.426758 -3.05176e-05 0)" d="M591.956 239.988L672.019 239.987L672.022 320.04L591.984 320.055L591.956 239.988Z"/>
	<path fill="#FFFEFE" transform="matrix(0.426758 0 0 0.426758 -3.05176e-05 0)" d="M239.969 463.998L320.014 463.992L320.02 560.034L239.996 560.048L239.969 463.998Z"/>
	<path fill="#FFFEFE" transform="matrix(0.426758 0 0 0.426758 -3.05176e-05 0)" d="M703.953 463.991L784.013 463.994L784.011 560.026L703.987 560.05L703.953 463.991Z"/>
	<path fill="#FFFEFE" transform="matrix(0.426758 0 0 0.426758 -3.05176e-05 0)" d="M463.96 703.988L560.015 703.988L560.015 784.031L463.991 784.047L463.96 703.988Z"/>
	<path fill="#FFFEFE" transform="matrix(0.426758 0 0 0.426758 -3.05176e-05 0)" d="M351.958 463.992L432.015 463.99L432.02 560.033L351.987 560.049L351.958 463.992Z"/>
	<path fill="#FFFEFE" transform="matrix(0.426758 0 0 0.426758 -3.05176e-05 0)" d="M463.958 239.992L560.016 239.99L560.022 320.04L463.987 320.051L463.958 239.992Z"/>
	<path fill="#FFFEFE" transform="matrix(0.426758 0 0 0.426758 -3.05176e-05 0)" d="M463.959 351.99L560.018 351.988L560.02 432.035L463.987 432.051L463.959 351.99Z"/>
	<path fill="#FFFEFE" transform="matrix(0.426758 0 0 0.426758 -3.05176e-05 0)" d="M591.957 463.99L672.018 463.987L672.018 560.036L591.985 560.051L591.957 463.99Z"/>
	<path fill="#FFFEFE" transform="matrix(0.426758 0 0 0.426758 -3.05176e-05 0)" d="M463.957 591.991L560.017 591.988L560.02 672.039L463.985 672.054L463.957 591.991Z"/>
	<path fill="#333060" transform="matrix(0.426758 0 0 0.426758 -3.05176e-05 0)" d="M464.002 464.014L559.991 464.01L559.992 559.992L464.013 560.008L464.002 464.014Z"/>
</svg>
