<?xml version="1.0" encoding="utf-8" ?>
<svg xmlns="http://www.w3.org/2000/svg" xmlns:xlink="http://www.w3.org/1999/xlink" width="437" height="437">
	<defs>
		<linearGradient id="gradient_0" gradientUnits="userSpaceOnUse" x1="330.80322" y1="722.47095" x2="791.4422" y2="213.36935">
			<stop offset="0" stop-color="#D0E5BE"/>
			<stop offset="1" stop-color="#FFFFE5"/>
		</linearGradient>
	</defs>
	<path fill="url(#gradient_0)" transform="matrix(0.426758 0 0 0.426758 -3.05176e-05 3.05176e-05)" d="M335.346 1024L-0 1024L0 -0L1024 0L1024 285.449L1024 1024L335.346 1024Z"/>
	<path fill="#EB4420" transform="matrix(0.426758 0 0 0.426758 -3.05176e-05 3.05176e-05)" d="M661.248 420.584L665.489 415.831C673.072 408.375 682.237 401.198 692.702 398.465C698.573 396.932 704.674 396.817 710.698 396.839C699.147 406.831 688.616 420.821 681.355 434.223L661.248 420.584Z"/>
	<path fill="#EB4420" transform="matrix(0.426758 0 0 0.426758 -3.05176e-05 3.05176e-05)" d="M819.237 524.709C827.469 523.947 836.726 525.697 844.884 526.714L871.781 529.656C876.71 530.133 881.976 530.909 886.928 530.468L886.976 561.962L869.495 546.409C863.506 541.705 856.323 540.075 848.952 538.978C845.721 538.497 842.36 538.017 839.099 538.433C838.605 538.495 821.628 526.381 819.237 524.709Z"/>
	<path fill="#F9C555" transform="matrix(0.426758 0 0 0.426758 -3.05176e-05 3.05176e-05)" d="M167.556 248.339L206.462 248.422L186.379 278.727L171.96 299.009C170.641 300.9 168.366 303.139 167.624 305.266L167.556 248.339Z"/>
	<path fill="#0E0F11" transform="matrix(0.426758 0 0 0.426758 -3.05176e-05 3.05176e-05)" d="M99.2659 480.694C103.098 482.498 106.667 484.838 110.324 486.968L135.072 501.793C150.105 510.913 166.027 519.713 180.358 529.857L183.705 547.498C181.747 547.22 179.666 545.402 177.99 544.345L168.526 538.638C166.541 536.599 162.479 534.907 159.939 533.383L138.932 520.778C131.252 515.891 123.004 512.006 115.835 506.299C108.356 500.346 101.947 489.841 99.2659 480.694Z"/>
	<path fill="#F9D688" transform="matrix(0.426758 0 0 0.426758 -3.05176e-05 3.05176e-05)" d="M250.607 174.939L323.771 175.038L323.868 210.91L305.134 199.685C297.269 194.685 288.812 188.678 279.451 186.99L278.5 186.826C273.663 185.926 267.439 185.427 262.577 186.342C258.34 187.14 254.453 188.961 250.524 190.666L250.607 174.939Z"/>
	<path fill="#30666D" transform="matrix(0.426758 0 0 0.426758 -3.05176e-05 3.05176e-05)" d="M217.738 252.366L238.75 221.433C242.113 216.357 245.113 210.327 249.299 205.92C251.974 203.103 255.286 201.194 258.853 199.716C267.66 196.067 276.163 196.832 284.884 200.382C282.725 201.799 280.584 203.196 278.75 205.032C270.693 213.096 264.262 224.011 257.975 233.5L239.507 262.578L238.507 262.997L238.215 262.287C232.925 257.948 224.347 254.037 217.738 252.366Z"/>
	<path fill="#F9C555" transform="matrix(0.426758 0 0 0.426758 -3.05176e-05 3.05176e-05)" d="M807.18 325.968L807.488 326.331L807.482 346.158C801.552 345.504 795.726 344.955 789.781 345.758C770.623 348.346 752.66 361.49 737.885 373.322L733.353 377.036C728.08 374.587 721.657 370.67 715.955 369.696C718.865 368.083 721.798 366.448 724.409 364.368C725.858 363.212 726.875 361.654 728.353 360.505C737.897 353.081 747.32 345.359 755.401 336.307L763.747 326.022L793.727 326.259C797.72 326.285 803.395 327.023 807.18 325.968Z"/>
	<path fill="#111B27" transform="matrix(0.426758 0 0 0.426758 -3.05176e-05 3.05176e-05)" d="M661.248 420.584C658.321 418.266 654.548 416.331 651.355 414.357L634.817 403.594C642.653 392.729 652.224 385.791 664.756 381.22C684.437 374.042 705.679 376.76 724.401 385.431L710.698 396.839C704.674 396.817 698.573 396.932 692.702 398.465C682.237 401.198 673.072 408.375 665.489 415.831L661.248 420.584Z"/>
	<path fill="#BD270F" transform="matrix(0.426758 0 0 0.426758 -3.05176e-05 3.05176e-05)" d="M885.536 326.428L885.558 370.619C878.377 370.684 871.542 370.545 864.5 368.946C844.359 364.375 827.463 351.413 807.482 346.158L807.488 326.331L885.536 326.428Z"/>
	<path fill="#BD270F" transform="matrix(0.426758 0 0 0.426758 -3.05176e-05 3.05176e-05)" d="M403.117 248.977L484.032 248.962L484.056 309.736L403.399 259.921C403.46 256.342 403.792 252.493 403.117 248.977Z"/>
	<path fill="#111B27" transform="matrix(0.426758 0 0 0.426758 -3.05176e-05 3.05176e-05)" d="M758.495 288.569C770.25 286.056 781.11 281.136 792.176 276.61C783.809 293.26 774.893 311.064 763.747 326.022L755.401 336.307C747.32 345.359 737.897 353.081 728.353 360.505C726.875 361.654 725.858 363.212 724.409 364.368C721.798 366.448 718.865 368.083 715.955 369.696C706.113 367.41 696.41 365.301 686.25 365.179C676.448 365.06 667.027 366.648 657.521 368.804C660.157 366.855 664.182 365.704 667.256 364.433L689.234 355.414C696.469 352.41 703.789 349.311 710.395 345.055C725.049 335.611 736.956 320.974 746.683 306.672L758.495 288.569Z"/>
	<path fill="#111B27" transform="matrix(0.426758 0 0 0.426758 -3.05176e-05 3.05176e-05)" d="M930.633 381.995C941.071 378.518 950.497 374.2 960.111 368.839C952.775 386.477 947.765 405.187 936.982 421.22C932.979 427.171 927.66 432.217 922.16 436.772C921.212 437.557 915.569 441.483 915.391 442.097C914.708 444.448 915.449 449.499 915.47 452.125C906.22 454.273 895.41 455.745 885.929 454.249C882.635 453.729 879.266 453.666 876 453C863.519 450.456 851.605 444.859 841.572 437.088C849.253 436.846 856.687 436.108 864.181 434.423C894.415 427.627 914.661 407.367 930.633 381.995Z"/>
	<path fill="#111B27" transform="matrix(0.426758 0 0 0.426758 -3.05176e-05 3.05176e-05)" d="M935.074 463.392L967.95 451.86C959.775 475.162 948.716 497.745 930.154 514.536C927.829 516.64 925.329 518.693 922.734 520.46C920.974 521.66 917.39 523.149 916.31 524.935C914.118 524.401 907.93 527.814 905.265 528.579C900.195 530.034 892.098 531.595 886.928 530.468C881.976 530.909 876.71 530.133 871.781 529.656L844.884 526.714C836.726 525.697 827.469 523.947 819.237 524.709L798.165 511.563L830.5 514.657C842.778 515.796 855.439 518.115 867.698 515.689C891.458 510.986 910.205 497.979 924.812 478.817C928.579 473.876 931.639 468.549 935.074 463.392Z"/>
	<path fill="#EB4420" transform="matrix(0.426758 0 0 0.426758 -3.05176e-05 3.05176e-05)" d="M837.028 630.052C829.964 624.838 824.659 618.552 822.558 609.841L822.36 609C821.993 607.509 821.664 606.086 821.573 604.551C820.969 594.368 824.149 583.902 831.029 576.22C837.687 568.788 846.763 563.835 856.814 563.319C866.843 562.805 875.273 566.418 882.715 573.058C888.111 577.294 891.781 582.381 894.799 588.494L894.87 589.035C895.266 591.897 896.538 594.429 896.938 597.25C898.287 606.785 895.332 616.049 889.657 623.716C883.789 631.641 876.362 635.632 866.849 637.591C855.992 638.43 845.73 637.046 837.028 630.052Z"/>
	<path fill="#FAFCFA" transform="matrix(0.426758 0 0 0.426758 -3.05176e-05 3.05176e-05)" d="M859.255 571.25C860.512 571.175 859.898 571.092 861.095 571.5C860.765 572.81 860.342 573.938 859.728 575.147C854.648 585.151 844.268 592.962 833.75 596.44C832.545 596.475 833.104 596.622 832.071 596C832.678 591.008 834.467 586.204 837.619 582.25C843.104 575.369 850.733 572.302 859.255 571.25Z"/>
	<defs>
		<linearGradient id="gradient_1" gradientUnits="userSpaceOnUse" x1="865.2453" y1="604.70551" x2="888.39587" y2="623.13086">
			<stop offset="0" stop-color="#01090A"/>
			<stop offset="1" stop-color="#041422"/>
		</linearGradient>
	</defs>
	<path fill="url(#gradient_1)" transform="matrix(0.426758 0 0 0.426758 -3.05176e-05 3.05176e-05)" d="M882.715 573.058C888.111 577.294 891.781 582.381 894.799 588.494L894.87 589.035C895.266 591.897 896.538 594.429 896.938 597.25C898.287 606.785 895.332 616.049 889.657 623.716C883.789 631.641 876.362 635.632 866.849 637.591C855.992 638.43 845.73 637.046 837.028 630.052C838.848 629.968 841.123 631.452 842.852 632.147C851.319 635.555 860.248 634.874 868.529 631.241C877.861 627.147 885.268 618.408 888.827 608.94C891.248 602.501 891.591 593.67 889.349 587.154C887.648 582.215 884.881 577.787 882.715 573.058Z"/>
	<path fill="#BD270F" transform="matrix(0.426758 0 0 0.426758 -3.05176e-05 3.05176e-05)" d="M323.771 175.038L403.467 174.976L403.415 233.665L403.405 244.087C403.405 244.903 403.668 247.041 403.402 247.75C403.252 248.15 402.908 248.447 402.661 248.795C397.344 248.113 391.28 248.572 385.89 248.543C382.66 247.492 379.424 245.282 376.5 243.577L356.426 231.092L323.868 210.91L323.771 175.038Z"/>
	<path fill="#F18D0B" transform="matrix(0.426758 0 0 0.426758 -3.05176e-05 3.05176e-05)" d="M727.751 286.61L746.826 279.036C735.918 300.969 723.743 322.737 701.5 335.022C695.073 338.571 688.167 340.902 681.23 343.231L587.093 373.825L558.911 356.397L692.5 301.556L716.846 291.533C720.036 290.228 725.23 288.86 727.751 286.61Z"/>
	<path fill="#111B27" transform="matrix(0.426758 0 0 0.426758 -3.05176e-05 3.05176e-05)" d="M816.985 437.167C826.137 436.203 834.727 442.079 841.974 446.84C847.729 450.621 853.494 454.568 859.656 457.659C879.31 467.519 902.086 468.277 922.825 461.373C921.55 464.197 918.675 467.264 916.773 469.766C902.824 488.107 885.009 501.806 861.811 504.94C846.509 506.299 832.27 502.334 818.648 495.54L800.153 485.28C790.895 480.414 781.627 478.739 771.326 480.939C767.078 481.846 762.894 483.542 758.75 484.86C757.707 484.384 756.934 484.29 756.375 483.25C767.9 476.437 777.373 464.913 786.692 455.486C795.38 446.696 804.258 438.868 816.985 437.167Z"/>
	<path fill="#F9D688" transform="matrix(0.426758 0 0 0.426758 -3.05176e-05 3.05176e-05)" d="M484.032 248.962L536.964 248.84C545.909 248.84 555.664 247.999 564.482 248.983L564.464 291.009C564.464 296.875 563.75 303.705 564.644 309.473C560.514 312.399 555.386 314.373 550.839 316.608C540.179 321.847 529.641 327.079 518.544 331.349L484.056 309.736L484.032 248.962Z"/>
	<path fill="#F9D688" transform="matrix(0.426758 0 0 0.426758 -3.05176e-05 3.05176e-05)" d="M403.467 174.976L483.82 175.01L484.032 248.962L403.117 248.977C403.792 252.493 403.46 256.342 403.399 259.921C401.912 259.679 399.718 258.065 398.433 257.26C394.343 254.698 389.105 252.097 385.89 248.543C391.28 248.572 397.344 248.113 402.661 248.795C402.908 248.447 403.252 248.15 403.402 247.75C403.668 247.041 403.405 244.903 403.405 244.087L403.415 233.665L403.467 174.976Z"/>
	<path fill="#199FA3" transform="matrix(0.426758 0 0 0.426758 -3.05176e-05 3.05176e-05)" d="M792.557 356.659C813.121 354.289 830.047 369.041 848.302 375.996C866.247 382.833 883.86 384.755 902.626 379.81C909.847 377.906 916.424 375.045 923.216 371.982L912.29 387.726C899.737 404.562 880.419 420.453 858.917 423.457L858 423.579C839.264 426.352 821.601 420.046 805.266 411.562C793.892 405.694 781.812 399.426 768.985 397.587L768 397.45L764.557 397.074C758.683 396.883 752.431 398.328 746.872 400.119C730.731 405.318 718.128 414.941 704.997 425.254C700.631 428.683 695.976 431.734 691.992 435.622L691.355 436.25L691.032 436C697.754 428.018 704.2 419.864 711.425 412.316C724.592 398.563 739.102 386.645 754.463 375.461C761.213 370.546 768.164 365.34 775.716 361.72C781.039 359.168 786.767 357.681 792.557 356.659Z"/>
	<defs>
		<linearGradient id="gradient_2" gradientUnits="userSpaceOnUse" x1="661.63647" y1="244.90375" x2="585.50165" y2="371.53488">
			<stop offset="0" stop-color="#FEFFEA"/>
			<stop offset="1" stop-color="#FCFFFE"/>
		</linearGradient>
	</defs>
	<path fill="url(#gradient_2)" transform="matrix(0.426758 0 0 0.426758 -3.05176e-05 3.05176e-05)" d="M646.994 266.91C651.779 265.935 656.496 264.832 661.4 264.718C679.34 264.303 698.373 272.866 715.115 278.577C718.991 279.9 722.953 281.77 726.906 282.723L727.751 286.61C725.23 288.86 720.036 290.228 716.846 291.533L692.5 301.556L558.911 356.397C554.036 354.321 548.919 350.042 544.284 347.222L521.805 334.239C520.557 333.463 519.527 332.431 518.544 331.349C529.641 327.079 540.179 321.847 550.839 316.608C555.386 314.373 560.514 312.399 564.644 309.473L613.944 283.127C625.017 277.116 634.838 270.645 646.994 266.91Z"/>
	<path fill="#199FA3" transform="matrix(0.426758 0 0 0.426758 -3.05176e-05 3.05176e-05)" d="M284.884 200.382L838.311 550.565C831.326 552.704 824.458 554.817 818.582 559.351C811.608 564.733 806.77 573.344 802.199 580.759L785.234 609.547L683.431 543.775L717.098 491.836C715.519 489.825 711.508 487.79 709.276 486.304L684.607 470.185L413.598 299.176C407.228 294.013 399.788 289.86 392.887 285.426L381.055 277.671C377.85 275.593 374.397 273.211 370.538 272.683C368.924 272.463 367.531 272.734 366.316 273.866C363.778 276.233 361.67 280.187 359.647 283.042L345.735 302.599C341.557 308.553 337.825 315.207 332.089 319.775L331.587 319.583L330.756 319.246C326.754 317.65 323.141 315.239 319.5 312.962L301.689 301.566L239.507 262.578L257.975 233.5C264.262 224.011 270.693 213.096 278.75 205.032C280.584 203.196 282.725 201.799 284.884 200.382Z"/>
	<path fill="#7BE0CF" transform="matrix(0.426758 0 0 0.426758 -3.05176e-05 3.05176e-05)" d="M713.35 547.768L712.617 547.675C711.151 547.445 709.784 546.513 708.51 545.793L731.169 511.496L803.179 558.06C802.042 559.424 800.916 561.111 799.454 562.118L768.192 541.719C766.531 540.517 764.534 538.524 762.521 538.119L743.042 525.539C739.669 523.356 735.709 521.178 732.752 518.503L713.35 547.768Z"/>
	<path fill="#111B27" transform="matrix(0.426758 0 0 0.426758 -3.05176e-05 3.05176e-05)" d="M321.74 253.616L356.042 275.498L342.75 294.268L341.93 294.826C338.744 294.902 313.251 277.643 308.365 274.861C308.409 273.538 310.433 271.175 311.203 269.98L321.74 253.616Z"/>
	<path fill="#111B27" transform="matrix(0.426758 0 0 0.426758 -3.05176e-05 3.05176e-05)" d="M274.11 225.75C274.74 225.695 275.369 225.536 276 225.585C278.681 225.794 309.869 246.207 314.742 249.226L302.131 268.75L301.413 269.343C299.072 269.315 267.634 248.607 261.834 245.697C263.912 239.546 269.51 230.279 274.11 225.75Z"/>
	<path fill="#111B27" transform="matrix(0.426758 0 0 0.426758 -3.05176e-05 3.05176e-05)" d="M713.35 547.768L732.752 518.503C735.709 521.178 739.669 523.356 743.042 525.539L762.521 538.119L744.139 567.352C740.821 564.326 735.384 561.934 731.5 559.466C725.498 555.653 719.648 551.005 713.35 547.768Z"/>
	<path fill="#111B27" transform="matrix(0.426758 0 0 0.426758 -3.05176e-05 3.05176e-05)" d="M762.521 538.119C764.534 538.524 766.531 540.517 768.192 541.719L799.454 562.118L799.141 562.457C796.184 565.763 793.928 569.926 791.589 573.697L780.806 591.281L749.402 571.155L748.771 570.775C747.028 569.746 745.618 568.742 744.139 567.352L762.521 538.119Z"/>
	<path fill="#FBF1C2" transform="matrix(0.426758 0 0 0.426758 -3.05176e-05 3.05176e-05)" d="M762.521 538.119C764.534 538.524 766.531 540.517 768.192 541.719L749.402 571.155L748.771 570.775C747.028 569.746 745.618 568.742 744.139 567.352L762.521 538.119Z"/>
	<path fill="#199FA3" transform="matrix(0.426758 0 0 0.426758 -3.05176e-05 3.05176e-05)" d="M188.303 525.21C185.964 522.552 181.48 520.323 178.456 518.462L152.28 502.983L121.471 484.258C115.325 480.801 108.273 477.86 102.477 473.943C96.2546 469.739 92.1229 462.01 90.7292 454.792C89.4801 448.322 90.4971 441.328 93.3715 435.416C96.2141 429.569 100.915 423.919 104.581 418.533L125.173 387.91L217.738 252.366C224.347 254.037 232.925 257.948 238.215 262.287L238.507 262.997L153.927 395.863L129.915 431.663C125.838 437.747 120.961 444.103 117.892 450.747C116.05 454.736 116.184 460.15 117.136 464.391C118.843 471.993 123.669 474.939 129.885 478.767L186.314 513.255L220.458 535.196L252.88 556.111C257.055 558.839 261.878 561.198 265.775 564.239C269.34 565.922 272.679 568.331 276.029 570.424L292.832 580.82L345.488 613.297L474.151 693.338L514.675 718.563C530.116 727.45 546.371 735.265 560.703 745.935L562.815 741.931C583.717 756.306 606.056 769.078 627.944 781.889L689.139 817.849L713.011 832.037C718.408 835.379 724.171 839.601 730 842.065C732.229 843.007 736.162 842.678 738.505 842.228C742.225 841.513 745.47 839.457 747.879 836.568C751.692 831.995 754.495 825.207 757.47 820L772.678 794.664L839.668 683.324C848.762 668.267 856.706 651.905 866.849 637.591C876.362 635.632 883.789 631.641 889.657 623.716C895.332 616.049 898.287 606.785 896.938 597.25C896.538 594.429 895.266 591.897 894.87 589.035L894.799 588.494C900.853 596.736 904.811 611.709 903.234 621.946L902.604 625L902.422 625.825C900.88 632.503 897.024 638.777 893.7 644.689L879.179 669.66L838.864 737.391L824.344 760.327L786.52 823.642L776.861 839.762C774.341 844.168 772.06 848.814 769.114 852.95C765.766 857.65 761.412 861.473 756.509 864.481C748.127 869.622 737.591 872.793 727.793 870.405L726.929 870.18L726.124 869.988C720.631 868.614 715.567 865.19 710.765 862.308L689.469 849.25L627.363 811.62L593.505 790.324C587.095 785.224 578.827 780.993 571.751 776.788C570.637 775.137 567.255 773.61 565.495 772.526L547.569 761.502L518.5 743.006L386.75 658.037L306.014 607.16C295.109 600.261 283.372 594.056 272.859 586.618C271.338 585.542 269.841 584.838 268.125 584.111L261.992 568.002C259.015 565.617 254.898 563.797 251.565 561.874L229.943 549.753L188.303 525.21Z"/>
	<path fill="#111B27" transform="matrix(0.426758 0 0 0.426758 -3.05176e-05 3.05176e-05)" d="M138.312 348.138C137.52 344.006 138.066 339.027 138.071 334.789L138.103 306.285L138.16 199.081C138.203 183.859 143.081 169.968 154.162 159.162C162.301 151.224 173.634 146.083 184.931 144.804C192.726 143.921 201.15 144.515 209.014 144.517L254.824 144.536L407.68 144.627L702.953 144.776L811.113 144.795L863.888 144.723C883.344 145.1 895.861 156.822 908.592 170.124L908.767 170.57C911.254 176.814 914.076 181.967 915.038 188.814C915.94 195.242 915.473 202.214 915.489 208.71L915.526 243.559L915.474 363.655C905.983 367.183 895.787 370.562 885.558 370.619L885.536 326.428L807.488 326.331L807.18 325.968C803.395 327.023 797.72 326.285 793.727 326.259L763.747 326.022C774.893 311.064 783.809 293.26 792.176 276.61C781.11 281.136 770.25 286.056 758.495 288.569L769.268 269.922L746.826 279.036L727.751 286.61L726.906 282.723C722.953 281.77 718.991 279.9 715.115 278.577C698.373 272.866 679.34 264.303 661.4 264.718C656.496 264.832 651.779 265.935 646.994 266.91C634.838 270.645 625.017 277.116 613.944 283.127L564.644 309.473C563.75 303.705 564.464 296.875 564.464 291.009L564.482 248.983C555.664 247.999 545.909 248.84 536.964 248.84L484.032 248.962L483.82 175.01L403.467 174.976L323.771 175.038L250.607 174.939L250.524 190.666C246.553 193.192 242.977 195.61 239.758 199.062C233.897 205.348 229.518 213.348 224.856 220.556L206.462 248.422L167.556 248.339L167.624 305.266C165.594 309.36 162.312 313.166 159.736 316.97L138.312 348.138Z"/>
	<path fill="#EB4420" transform="matrix(0.426758 0 0 0.426758 -3.05176e-05 3.05176e-05)" d="M167.556 248.339L167.535 211.242C167.541 205.357 166.717 197.965 167.994 192.25C168.942 188.009 171.066 184.507 174.116 181.467C176.838 178.753 180.11 176.465 183.877 175.483C186.847 174.709 190.146 174.881 193.195 174.876L206.324 174.866L250.607 174.939L250.524 190.666C246.553 193.192 242.977 195.61 239.758 199.062C233.897 205.348 229.518 213.348 224.856 220.556L206.462 248.422L167.556 248.339Z"/>
	<path fill="#BD270F" transform="matrix(0.426758 0 0 0.426758 -3.05176e-05 3.05176e-05)" d="M483.82 175.01L565.005 174.994L564.482 248.983C555.664 247.999 545.909 248.84 536.964 248.84L484.032 248.962L483.82 175.01Z"/>
	<path fill="#F9D688" transform="matrix(0.426758 0 0 0.426758 -3.05176e-05 3.05176e-05)" d="M646.907 174.865L726.502 174.845L806.904 174.978L849.656 174.926C856.007 174.924 864.021 173.985 870.207 175.388C873.816 176.206 877.341 178.251 880 180.828C882.116 182.878 883.62 185.244 884.62 188L884.833 188.568C885.619 190.853 885.442 193.546 885.45 195.933L885.446 207.814L885.475 248.475L885.536 326.428L807.488 326.331L807.18 325.968C803.395 327.023 797.72 326.285 793.727 326.259L763.747 326.022C774.893 311.064 783.809 293.26 792.176 276.61C781.11 281.136 770.25 286.056 758.495 288.569L769.268 269.922L746.826 279.036L727.751 286.61L726.906 282.723C722.953 281.77 718.991 279.9 715.115 278.577C698.373 272.866 679.34 264.303 661.4 264.718C656.496 264.832 651.779 265.935 646.994 266.91C634.838 270.645 625.017 277.116 613.944 283.127L564.644 309.473C563.75 303.705 564.464 296.875 564.464 291.009L564.482 248.983L565.005 174.994L646.907 174.865Z"/>
	<path fill="#BD270F" transform="matrix(0.426758 0 0 0.426758 -3.05176e-05 3.05176e-05)" d="M564.482 248.983L646.969 249.101L646.994 266.91C634.838 270.645 625.017 277.116 613.944 283.127L564.644 309.473C563.75 303.705 564.464 296.875 564.464 291.009L564.482 248.983Z"/>
	<path fill="#BD270F" transform="matrix(0.426758 0 0 0.426758 -3.05176e-05 3.05176e-05)" d="M726.906 282.723L726.949 248.964L806.909 248.834L806.977 301.424C806.992 309.373 806.243 318.118 807.18 325.968C803.395 327.023 797.72 326.285 793.727 326.259L763.747 326.022C774.893 311.064 783.809 293.26 792.176 276.61C781.11 281.136 770.25 286.056 758.495 288.569L769.268 269.922L746.826 279.036L727.751 286.61L726.906 282.723Z"/>
	<path fill="#BD270F" transform="matrix(0.426758 0 0 0.426758 -3.05176e-05 3.05176e-05)" d="M806.904 174.978L849.656 174.926C856.007 174.924 864.021 173.985 870.207 175.388C873.816 176.206 877.341 178.251 880 180.828C882.116 182.878 883.62 185.244 884.62 188L884.833 188.568C885.619 190.853 885.442 193.546 885.45 195.933L885.446 207.814L885.475 248.475L806.981 248.535L806.904 174.978Z"/>
	<path fill="#BD270F" transform="matrix(0.426758 0 0 0.426758 -3.05176e-05 3.05176e-05)" d="M646.907 174.865L726.502 174.845L726.559 248.637L646.915 248.689L646.907 174.865Z"/>
	<path fill="#111B27" transform="matrix(0.426758 0 0 0.426758 -3.05176e-05 3.05176e-05)" d="M239.507 262.578L301.689 301.566L319.5 312.962C323.141 315.239 326.754 317.65 330.756 319.246L331.587 319.583L332.089 319.775C337.825 315.207 341.557 308.553 345.735 302.599L359.647 283.042C361.67 280.187 363.778 276.233 366.316 273.866C367.531 272.734 368.924 272.463 370.538 272.683C374.397 273.211 377.85 275.593 381.055 277.671L392.887 285.426C399.788 289.86 407.228 294.013 413.598 299.176L684.607 470.185L709.276 486.304C711.508 487.79 715.519 489.825 717.098 491.836L683.431 543.775L785.234 609.547L829.572 638.38L734.581 795.568L584.859 704.967L562.815 741.931L560.703 745.935C546.371 735.265 530.116 727.45 514.675 718.563L474.151 693.338L345.488 613.297L292.832 580.82L276.029 570.424C272.679 568.331 269.34 565.922 265.775 564.239C261.878 561.198 257.055 558.839 252.88 556.111L220.458 535.196L186.314 513.255L129.885 478.767C123.669 474.939 118.843 471.993 117.136 464.391C116.184 460.15 116.05 454.736 117.892 450.747C120.961 444.103 125.838 437.747 129.915 431.663L153.927 395.863L238.507 262.997L239.507 262.578Z"/>
	<path fill="#199FA3" transform="matrix(0.426758 0 0 0.426758 -3.05176e-05 3.05176e-05)" d="M716.798 728.082L742.427 744.063L726.159 770.119L700.198 753.793L716.798 728.082Z"/>
	<path fill="#EB4420" transform="matrix(0.426758 0 0 0.426758 -3.05176e-05 3.05176e-05)" d="M776.957 626.125C781.293 628.337 785.351 631.505 789.347 634.288L805.021 644.289L788.005 670.75L787.39 671.218C784.038 670.31 779.077 666.133 776.104 664.167L759.836 653.637L776.957 626.125Z"/>
	<path fill="#FBF1C2" transform="matrix(0.426758 0 0 0.426758 -3.05176e-05 3.05176e-05)" d="M500.179 577.348L528.688 596.016L508.599 625.058L480.295 606.173L500.179 577.348Z"/>
	<path fill="#FBF1C2" transform="matrix(0.426758 0 0 0.426758 -3.05176e-05 3.05176e-05)" d="M456.578 548.287L484.973 566.871L464.75 595.681L463.93 596.032C460.963 595.022 457.99 592.608 455.345 590.923L436.108 578.032L456.578 548.287Z"/>
	<path fill="#F9C555" transform="matrix(0.426758 0 0 0.426758 -3.05176e-05 3.05176e-05)" d="M666.923 693.897L697.951 712.96L679.425 741.759L648.493 722.672L666.923 693.897Z"/>
	<path fill="#FBF1C2" transform="matrix(0.426758 0 0 0.426758 -3.05176e-05 3.05176e-05)" d="M380.755 380.262L409.436 399.341L389.603 428.764L360.566 409.444L380.755 380.262Z"/>
	<path fill="#FBF1C2" transform="matrix(0.426758 0 0 0.426758 -3.05176e-05 3.05176e-05)" d="M324.516 403.524C327.947 405.071 331.387 407.83 334.553 409.921L354.4 423.231L334.309 451.246L304.256 432.369L324.516 403.524Z"/>
	<path fill="#FBF1C2" transform="matrix(0.426758 0 0 0.426758 -3.05176e-05 3.05176e-05)" d="M277.759 373.717L308.4 394.267L288.67 421.865L258.229 402.377L277.759 373.717Z"/>
	<path fill="#FBF1C2" transform="matrix(0.426758 0 0 0.426758 -3.05176e-05 3.05176e-05)" d="M410.429 519.504L439.063 538.683L418.709 567.975L389.762 549.109L410.429 519.504Z"/>
	<path fill="#FBF1C2" transform="matrix(0.426758 0 0 0.426758 -3.05176e-05 3.05176e-05)" d="M286.016 319.678L314.94 339.312L294.277 368.639L265.174 349.374L286.016 319.678Z"/>
	<path fill="#FBF1C2" transform="matrix(0.426758 0 0 0.426758 -3.05176e-05 3.05176e-05)" d="M334.779 350.596L363.491 369.682L343.481 399.219L313.925 379.871L334.779 350.596Z"/>
	<path fill="#FBF1C2" transform="matrix(0.426758 0 0 0.426758 -3.05176e-05 3.05176e-05)" d="M426.973 409.642C433.697 413.096 440.123 417.71 446.448 421.874C449.487 423.875 453.523 425.989 455.897 428.683L435.891 457.821C432.451 456.33 429.181 453.996 426 452.008L406.834 439.305C407.544 436.92 410.007 434.138 411.415 432.046L426.973 409.642Z"/>
	<path fill="#FBF1C2" transform="matrix(0.426758 0 0 0.426758 -3.05176e-05 3.05176e-05)" d="M466.223 493.194L495.208 513.366L475.447 542.578L445.808 523.319L466.223 493.194Z"/>
	<path fill="#FBF1C2" transform="matrix(0.426758 0 0 0.426758 -3.05176e-05 3.05176e-05)" d="M520.67 469.21C524.353 470.638 527.984 473.379 531.316 475.536L549.814 487.691L529.826 517.784L500.328 498.293L520.67 469.21Z"/>
	<path fill="#FBF1C2" transform="matrix(0.426758 0 0 0.426758 -3.05176e-05 3.05176e-05)" d="M473.985 438.502L503.005 457.976L482.628 487.854L453.519 468.531L473.985 438.502Z"/>
	<path fill="#FBF1C2" transform="matrix(0.426758 0 0 0.426758 -3.05176e-05 3.05176e-05)" d="M363.491 489.809C373.617 494.867 383.801 502.452 393.038 508.998L373.393 538.165L342.789 518.63L363.491 489.809Z"/>
	<path fill="#FBF1C2" transform="matrix(0.426758 0 0 0.426758 -3.05176e-05 3.05176e-05)" d="M317.386 459.486L346.554 479.076L326.654 507.837L296.426 489.009L317.386 459.486Z"/>
	<path fill="#FBF1C2" transform="matrix(0.426758 0 0 0.426758 -3.05176e-05 3.05176e-05)" d="M568.184 498.675L596.926 517.088L576.32 547.841L547.658 528.916L568.184 498.675Z"/>
	<path fill="#FBF1C2" transform="matrix(0.426758 0 0 0.426758 -3.05176e-05 3.05176e-05)" d="M418.245 464.25L418.871 464.076C421.708 464.574 445.46 480.982 449.142 483.859L429.37 511.75L428.695 512.35C425.374 510.843 422.108 508.146 418.998 506.17L398.562 493.132L418.245 464.25Z"/>
	<path fill="#FBF1C2" transform="matrix(0.426758 0 0 0.426758 -3.05176e-05 3.05176e-05)" d="M371.424 433.161L401.55 452.722C400.181 455.355 397.857 457.837 396.149 460.321L381.231 482.025C378.091 480.701 374.7 477.994 371.801 476.102L351.245 462.727L371.424 433.161Z"/>
	<path fill="#FBF1C2" transform="matrix(0.426758 0 0 0.426758 -3.05176e-05 3.05176e-05)" d="M224.025 398.751L254.185 418.239L233.774 447.329C231.493 446.651 227.995 443.696 225.917 442.378C218.488 437.665 210.638 433.417 203.667 428.041C204.957 424.591 208.388 420.822 210.607 417.735L224.025 398.751Z"/>
	<path fill="#FBF1C2" transform="matrix(0.426758 0 0 0.426758 -3.05176e-05 3.05176e-05)" d="M513.298 523.226L542.963 543.433L522.863 572.615L492.728 553.277L513.298 523.226Z"/>
	<path fill="#FBF1C2" transform="matrix(0.426758 0 0 0.426758 -3.05176e-05 3.05176e-05)" d="M271.225 428.778L300.924 448.446L280.538 478.523L250.415 458.603L271.225 428.778Z"/>
	<path fill="#FBF1C2" transform="matrix(0.426758 0 0 0.426758 -3.05176e-05 3.05176e-05)" d="M614.426 528.235L644.278 547.152L623.533 578.09L594.213 558.648C594.767 556.072 598.084 552.271 599.586 550.027L614.426 528.235Z"/>
	<path fill="#FBF1C2" transform="matrix(0.426758 0 0 0.426758 -3.05176e-05 3.05176e-05)" d="M237.547 288.672L268.187 309.336L247.878 339.105L216.373 318.476L237.547 288.672Z"/>
	<path fill="#FBF1C2" transform="matrix(0.426758 0 0 0.426758 -3.05176e-05 3.05176e-05)" d="M224.149 341.684L259.992 365.481L240.498 392.657C235.58 390.248 230.796 386.667 226.197 383.67L204.986 369.591L224.149 341.684Z"/>
	<path fill="#F9C555" transform="matrix(0.426758 0 0 0.426758 -3.05176e-05 3.05176e-05)" d="M614.164 659.134L649.258 681.259L630.497 711.468L594.426 689.877L614.164 659.134Z"/>
	<path fill="#30666D" transform="matrix(0.426758 0 0 0.426758 -3.05176e-05 3.05176e-05)" d="M747.013 672.011L779.485 692.392L757.849 727.194L725.186 706.365C731.155 694.562 739.339 682.804 747.013 672.011Z"/>
	<path fill="#FBF1C2" transform="matrix(0.426758 0 0 0.426758 -3.05176e-05 3.05176e-05)" d="M544.861 606.278L587.541 634.038L570.739 660.551L526.64 633.064L544.861 606.278Z"/>
	<path fill="#F9C555" transform="matrix(0.426758 0 0 0.426758 -3.05176e-05 3.05176e-05)" d="M718.101 585.773L757.094 610.18L735.828 642.789L706.741 623.773C703.793 621.92 700.194 618.795 696.874 617.879C704.51 607.712 709.977 595.426 718.101 585.773Z"/>
	<path fill="#FBF1C2" transform="matrix(0.426758 0 0 0.426758 -3.05176e-05 3.05176e-05)" d="M559.447 554.546L615.242 590.585L596.085 619.574L540.101 583.083L559.447 554.546Z"/>
	<path fill="#EB4420" transform="matrix(0.426758 0 0 0.426758 -3.05176e-05 3.05176e-05)" d="M696.874 617.879L696.567 618.187C693.931 618.603 659.241 594.3 654.582 591.013L668.709 568.831C671.122 564.891 673.728 558.882 676.817 555.616C676.979 555.444 677.635 555.219 677.775 555.183C680.085 554.586 686.004 554.145 688.347 554.465C690.95 554.821 695.935 558.796 698.205 560.266L723.901 576.782L718.397 585.19L718.101 585.773C709.977 595.426 704.51 607.712 696.874 617.879Z"/>
	<path fill="#F9C555" transform="matrix(0.426758 0 0 0.426758 -3.05176e-05 3.05176e-05)" d="M627.333 635.991L645.949 605.519L687.755 632.273L728.621 659.132C727.058 663.592 722.711 668.821 720.166 672.952L710.803 688.376C709.407 690.664 708.006 693.57 706.227 695.535L622.369 643.953L627.333 635.991Z"/>
	<path fill="#E75E1F" transform="matrix(0.426758 0 0 0.426758 -3.05176e-05 3.05176e-05)" d="M627.333 635.991L645.949 605.519L687.755 632.273L668.017 663.023L627.333 635.991Z"/>
	<path fill="#FBF1C2" transform="matrix(0.426758 0 0 0.426758 -3.05176e-05 3.05176e-05)" d="M146.995 415.243L254.535 483.069L230.574 519.95L122.718 451.55L146.995 415.243Z"/>
	<path fill="#FBF1C2" transform="matrix(0.426758 0 0 0.426758 -3.05176e-05 3.05176e-05)" d="M283.943 502.485L548.246 670.164L526.383 704.394L525.036 704.25L260.725 539.194C261.153 536.657 264.757 532.17 266.218 529.876L283.943 502.485Z"/>
	<path fill="#EB4420" transform="matrix(0.426758 0 0 0.426758 -3.05176e-05 3.05176e-05)" d="M413.598 299.176L684.607 470.185C681.092 478.579 674.243 486.79 669.177 494.337C666.4 498.474 663.801 503.706 660.351 507.287C658.26 509.457 655.19 510.92 652.18 511.047C648.198 511.215 645.166 510.32 641.721 508.314L625.91 498.028L602.01 482.859L472.843 400.411L419.044 366.121L398.825 353.315C395.147 350.976 390.518 348.591 387.447 345.495C385.731 343.766 385.756 341.899 385.865 339.584C386.016 336.386 388.343 333.834 390.127 331.31L398.942 318.925C403.507 312.493 407.781 304.473 413.598 299.176Z"/>
	<path fill="#F18D0B" transform="matrix(0.426758 0 0 0.426758 -3.05176e-05 3.05176e-05)" d="M335.346 1024L-0 1024L0 -0L1024 0L1024 285.449L1013.72 275.302L954.158 215.393L922.385 183.379C918.222 179.202 913.58 173.018 908.592 170.124C895.861 156.822 883.344 145.1 863.888 144.723L811.113 144.795L702.953 144.776L407.68 144.627L254.824 144.536L209.014 144.517C201.15 144.515 192.726 143.921 184.931 144.804C173.634 146.083 162.301 151.224 154.162 159.162C143.081 169.968 138.203 183.859 138.16 199.081L138.103 306.285L138.071 334.789C138.066 339.027 137.52 344.006 138.312 348.138L138.117 348.559C135.055 354.909 129.873 361.092 125.853 366.913L101.117 404.092C96.2147 411.4 90.4885 418.64 86.329 426.377C84.5859 429.619 83.3669 432.928 82.4703 436.5L82.2327 437.426C79.6725 447.923 81.5599 459.741 87.196 468.936C90.3925 474.151 94.3748 477.213 99.2659 480.694C101.947 489.841 108.356 500.346 115.835 506.299C123.004 512.006 131.252 515.891 138.932 520.778L138.968 732.115L138.985 789.591C138.997 800.799 138.067 813.026 139.975 824.09C141.816 834.771 147.426 844.618 155.027 852.246C160.36 857.598 168.877 864.117 176.234 866.286L335.346 1024Z"/>
	<path fill="#BD270F" transform="matrix(0.426758 0 0 0.426758 -3.05176e-05 3.05176e-05)" d="M908.592 170.124C913.58 173.018 918.222 179.202 922.385 183.379L954.158 215.393L1013.72 275.302L1024 285.449L1024 1024L335.346 1024L176.234 866.286C168.877 864.117 160.36 857.598 155.027 852.246C147.426 844.618 141.816 834.771 139.975 824.09C138.067 813.026 138.997 800.799 138.985 789.591L138.968 732.115L138.932 520.778L159.939 533.383C162.479 534.907 166.541 536.599 168.526 538.638L177.99 544.345C179.666 545.402 181.747 547.22 183.705 547.498C184.847 549.506 184.976 553.052 185.411 555.375L188.645 573.25L190.76 587.118C191.241 590.512 191.461 594.679 193.358 597.642C195.42 600.861 199.196 602.624 202.497 604.279C201.714 602.329 200.68 600.351 200.229 598.3C199.805 598.024 199.404 595.757 199.241 595.148C199.694 593.659 198.171 588.273 197.896 586.456C194.819 566.124 190.065 545.678 188.303 525.21L229.943 549.753L251.565 561.874C254.898 563.797 259.015 565.617 261.992 568.002L268.125 584.111L272.25 595.066L272.638 595.976C273.398 597.22 275.546 598.238 276.794 598.996L285.077 604.142L320.718 626.653L424.051 691.75L494.839 737.225L542.456 767.249L559.338 777.743C562.263 779.529 565.31 781.669 568.416 783.103L589.077 795.708L624.426 817.367L678.282 849.69L702.022 863.982C707.452 867.258 712.844 870.775 718.621 873.403C723.787 875.753 728.752 877.068 734.443 877.312C747.03 877.851 759.779 871.964 768.75 863.382C774.724 857.667 778.776 850.439 782.887 843.359L794.329 824.026L824.155 774.405L837.788 753.202L885.411 673.583C892.29 661.869 900.212 650.341 906.255 638.207C909.541 631.609 911.477 624.127 911.578 616.743C911.805 600.108 905.084 584.098 895.268 570.823C892.932 567.662 889.722 564.787 886.976 561.962L886.928 530.468C892.098 531.595 900.195 530.034 905.265 528.579C907.93 527.814 914.118 524.401 916.31 524.935C917.39 523.149 920.974 521.66 922.734 520.46C925.329 518.693 927.829 516.64 930.154 514.536C948.716 497.745 959.775 475.162 967.95 451.86L935.074 463.392C938.338 456.491 942.145 449.838 944.509 442.552C934.96 446.769 925.675 449.89 915.47 452.125C915.449 449.499 914.708 444.448 915.391 442.097C915.569 441.483 921.212 437.557 922.16 436.772C927.66 432.217 932.979 427.171 936.982 421.22C947.765 405.187 952.775 386.477 960.111 368.839C950.497 374.2 941.071 378.518 930.633 381.995C935.814 371.781 940.511 361.019 943.766 350.032L915.474 363.655L915.526 243.559L915.489 208.71C915.473 202.214 915.94 195.242 915.038 188.814C914.076 181.967 911.254 176.814 908.767 170.57L908.592 170.124Z"/>
	<path fill="#111B27" transform="matrix(0.426758 0 0 0.426758 -3.05176e-05 3.05176e-05)" d="M138.932 520.778L159.939 533.383C162.479 534.907 166.541 536.599 168.526 538.638L168.452 632.018L168.41 714.959L168.461 788.887L168.535 810.471C168.566 815.232 168.216 820.411 169.607 825.024C170.62 828.383 172.933 831.481 175.415 833.903C177.956 836.383 181.589 839.062 185.156 839.84C191.419 841.205 199.436 840.291 205.855 840.263L245.411 840.06L325.015 840.106L404.973 840.159L484.328 840.128L566.645 840.088L614.635 840.13C621.219 840.166 629.106 841.213 635.564 840.279C639.531 843.376 644.202 845.955 648.5 848.589L667.497 859.944C671.596 862.277 676.6 864.488 680.244 867.386C680.944 867.943 681.579 868.056 682.429 868.265L644.795 868.511L577.03 868.636L363.834 868.709L244.825 868.578L210.372 868.441C202.333 868.403 193.92 868.858 185.943 868.032C182.694 867.695 179.442 866.905 176.234 866.286C168.877 864.117 160.36 857.598 155.027 852.246C147.426 844.618 141.816 834.771 139.975 824.09C138.067 813.026 138.997 800.799 138.985 789.591L138.968 732.115L138.932 520.778Z"/>
	<path fill="#BD270F" transform="matrix(0.426758 0 0 0.426758 -3.05176e-05 3.05176e-05)" d="M223.446 632.1L245.506 646.12L325.307 696.261L325.003 709.744C324.988 711.427 325.33 713.433 324.378 714.823L324.726 715.002C326.064 721.843 325.097 730.336 325.087 737.343L325.063 788.25C326.333 789.028 328.642 788.742 330.14 788.744L405.05 788.342L404.973 840.159L325.015 840.106L245.411 840.06L205.855 840.263C199.436 840.291 191.419 841.205 185.156 839.84C181.589 839.062 177.956 836.383 175.415 833.903C172.933 831.481 170.62 828.383 169.607 825.024C168.216 820.411 168.566 815.232 168.535 810.471L168.461 788.887L168.41 714.959L168.452 632.018L223.446 632.1Z"/>
	<path fill="#F9D688" transform="matrix(0.426758 0 0 0.426758 -3.05176e-05 3.05176e-05)" d="M245.506 646.12L325.307 696.261L325.003 709.744C324.988 711.427 325.33 713.433 324.378 714.823L245.495 714.569L245.506 646.12Z"/>
	<path fill="#F9D688" transform="matrix(0.426758 0 0 0.426758 -3.05176e-05 3.05176e-05)" d="M245.411 840.06L245.34 788.901L325 788.949L325.015 840.106L245.411 840.06Z"/>
	<path fill="#F9D688" transform="matrix(0.426758 0 0 0.426758 -3.05176e-05 3.05176e-05)" d="M168.41 714.959L245.468 714.9L245.316 788.755L168.461 788.887L168.41 714.959Z"/>
	<defs>
		<linearGradient id="gradient_3" gradientUnits="userSpaceOnUse" x1="212.28679" y1="738.28278" x2="932.44452" y2="711.41058">
			<stop offset="0" stop-color="#130D12"/>
			<stop offset="1" stop-color="#041729"/>
		</linearGradient>
	</defs>
	<path fill="url(#gradient_3)" transform="matrix(0.426758 0 0 0.426758 -3.05176e-05 3.05176e-05)" d="M886.928 530.468C892.098 531.595 900.195 530.034 905.265 528.579C907.93 527.814 914.118 524.401 916.31 524.935L916.468 583.306L916.514 595.303C916.519 596.482 916.241 598.616 916.532 599.709C916.906 601.113 919.882 604.008 920.806 605.484C926.675 614.862 930.547 626.436 930.898 637.5C931.294 650.003 927.708 661.884 921.788 672.784C920.126 675.844 916.863 680.108 916.531 683.5C916.179 687.098 916.489 691.026 916.482 694.656L916.475 717.011L916.449 789.595C916.426 801.207 917.485 814.206 915.186 825.567C912.24 840.125 904.517 852.913 892.033 861.266C886.467 864.991 880.313 867.591 873.75 868.969C865.902 870.617 857.419 869.997 849.437 870L814.515 869.957L806.227 869.935C805.734 869.933 803.878 869.771 803.513 869.927C803.283 870.025 801.409 873.875 801.16 874.337C799.074 878.208 797.038 882.302 794.384 885.818C783.775 899.874 764.833 908.475 747.268 904.846C737.263 902.779 729.361 897.368 720.862 891.969L696.859 876.903C692.159 873.975 687.429 870.629 682.429 868.265C681.579 868.056 680.944 867.943 680.244 867.386C676.6 864.488 671.596 862.277 667.497 859.944L648.5 848.589C644.202 845.955 639.531 843.376 635.564 840.279C629.106 841.213 621.219 840.166 614.635 840.13L566.645 840.088L484.328 840.128L404.973 840.159L405.05 788.342L330.14 788.744C328.642 788.742 326.333 789.028 325.063 788.25L325.087 737.343C325.097 730.336 326.064 721.843 324.726 715.002L324.378 714.823C325.33 713.433 324.988 711.427 325.003 709.744L325.307 696.261L245.506 646.12L223.446 632.1L168.452 632.018L168.526 538.638L177.99 544.345C179.666 545.402 181.747 547.22 183.705 547.498C184.847 549.506 184.976 553.052 185.411 555.375L188.645 573.25L190.76 587.118C191.241 590.512 191.461 594.679 193.358 597.642C195.42 600.861 199.196 602.624 202.497 604.279C201.714 602.329 200.68 600.351 200.229 598.3C199.805 598.024 199.404 595.757 199.241 595.148C199.694 593.659 198.171 588.273 197.896 586.456C194.819 566.124 190.065 545.678 188.303 525.21L229.943 549.753L251.565 561.874C254.898 563.797 259.015 565.617 261.992 568.002L268.125 584.111L272.25 595.066L272.638 595.976C273.398 597.22 275.546 598.238 276.794 598.996L285.077 604.142L320.718 626.653L424.051 691.75L494.839 737.225L542.456 767.249L559.338 777.743C562.263 779.529 565.31 781.669 568.416 783.103L589.077 795.708L624.426 817.367L678.282 849.69L702.022 863.982C707.452 867.258 712.844 870.775 718.621 873.403C723.787 875.753 728.752 877.068 734.443 877.312C747.03 877.851 759.779 871.964 768.75 863.382C774.724 857.667 778.776 850.439 782.887 843.359L794.329 824.026L824.155 774.405L837.788 753.202L885.411 673.583C892.29 661.869 900.212 650.341 906.255 638.207C909.541 631.609 911.477 624.127 911.578 616.743C911.805 600.108 905.084 584.098 895.268 570.823C892.932 567.662 889.722 564.787 886.976 561.962L886.928 530.468Z"/>
	<path fill="#F9C555" transform="matrix(0.426758 0 0 0.426758 -3.05176e-05 3.05176e-05)" d="M478.387 744.777C479.187 744.512 479.862 743.398 480.418 742.75C481.642 742.376 481.765 742.513 482.991 742.948C479.517 749.371 475.645 756.81 469.305 760.855C469.477 760.251 469.622 759.81 469.97 759.276L470.252 758.875L467.535 758.619L470.245 757.25C473.555 755.141 476.929 749.249 477.782 745.503L478.387 744.777Z"/>
	<path fill="#EB4420" transform="matrix(0.426758 0 0 0.426758 -3.05176e-05 3.05176e-05)" d="M325.307 696.261L345.476 708.441C348.971 710.549 352.812 712.541 356.053 715.003L324.726 715.002L324.378 714.823C325.33 713.433 324.988 711.427 325.003 709.744L325.307 696.261Z"/>
	<path fill="#F18D0B" transform="matrix(0.426758 0 0 0.426758 -3.05176e-05 3.05176e-05)" d="M848.131 791.513L885.608 726.684L885.514 791.655L848.131 791.513Z"/>
	<path fill="#F9D688" transform="matrix(0.426758 0 0 0.426758 -3.05176e-05 3.05176e-05)" d="M484.282 780.164C488.446 775.73 492.273 771.101 495.984 766.285C498.617 762.869 501.328 758.306 504.657 755.645L555.076 787.914C547.378 789.058 538.693 788.178 530.879 788.137L484.072 788.015L484.282 780.164Z"/>
	<path fill="#F9D688" transform="matrix(0.426758 0 0 0.426758 -3.05176e-05 3.05176e-05)" d="M566.476 795.302L635.564 840.279C629.106 841.213 621.219 840.166 614.635 840.13L566.645 840.088L566.476 795.302Z"/>
	<path fill="#BD270F" transform="matrix(0.426758 0 0 0.426758 -3.05176e-05 3.05176e-05)" d="M885.514 791.655L885.482 809.385C885.461 813.867 885.699 818.278 884.272 822.603C883.032 826.359 880.705 829.514 877.963 832.31C874.946 835.386 870.952 837.939 866.765 839.064C861.268 840.541 854.683 839.901 848.995 839.919L820.456 839.992L848.131 791.513L885.514 791.655Z"/>
	<path fill="#EB4420" transform="matrix(0.426758 0 0 0.426758 -3.05176e-05 3.05176e-05)" d="M227.007 561.429C227.322 561.176 227.862 561.015 228.237 560.855L228.25 559.335L230.999 559.552C234.135 561.542 254.9 573.986 255.326 575.52L255.597 577.664C255.888 580.603 256.821 583.662 257.742 586.466C260.942 590.758 260.878 597.23 263.946 601.456L425.764 703.912L469.111 731.614C473.883 734.867 478.917 737.971 483.4 741.604C483.289 742.08 483.22 742.514 482.991 742.948C481.765 742.513 481.642 742.376 480.418 742.75C479.862 743.398 479.187 744.512 478.387 744.777L477.782 745.503C473.96 744.74 468.523 739.979 465.2 737.799L430.219 715.131L313.097 641.25L283.317 622.551C276.587 618.301 268.942 614.057 263.218 608.526C255.854 602.028 246.46 598.663 239.152 592.186C230.927 584.897 227.734 571.971 227.007 561.429Z"/>
	<path fill="#FAFCFA" transform="matrix(0.426758 0 0 0.426758 -3.05176e-05 3.05176e-05)" d="M227.007 561.429C227.322 561.176 227.862 561.015 228.237 560.855L228.25 559.335L230.999 559.552C234.135 561.542 254.9 573.986 255.326 575.52L255.597 577.664C255.888 580.603 256.821 583.662 257.742 586.466L256.927 586.28C254.55 585.673 252.1 583.998 249.992 582.777C245.083 579.933 240.45 576.766 235.814 573.502C236.834 576.928 237.727 580.226 239.733 583.232C241.59 586.014 244.709 588.412 247.331 590.435L263.052 601.418L264.483 606.008L263.218 608.526C255.854 602.028 246.46 598.663 239.152 592.186C230.927 584.897 227.734 571.971 227.007 561.429Z"/>
	<path fill="#E75E1F" transform="matrix(0.426758 0 0 0.426758 -3.05176e-05 3.05176e-05)" d="M227.007 561.429C227.322 561.176 227.862 561.015 228.237 560.855L228.25 559.335L230.999 559.552C234.135 561.542 254.9 573.986 255.326 575.52L255.597 577.664C248.868 574.522 242.442 570.373 236.082 566.532C233.317 564.861 230.143 562.228 227.007 561.429Z"/>
	<path fill="#FBF1C2" transform="matrix(0.426758 0 0 0.426758 -3.05176e-05 3.05176e-05)" d="M264.483 606.008L328.448 646.398L387.154 683.833L462.919 731.728C466.126 733.784 477.534 739.777 479.009 742.25L478.387 744.777L477.782 745.503C473.96 744.74 468.523 739.979 465.2 737.799L430.219 715.131L313.097 641.25L283.317 622.551C276.587 618.301 268.942 614.057 263.218 608.526L264.483 606.008Z"/>
	<path fill="#BD270F" transform="matrix(0.426758 0 0 0.426758 -3.05176e-05 3.05176e-05)" d="M555.076 787.914L566.476 795.302L566.645 840.088L484.328 840.128L484.072 788.015L530.879 788.137C538.693 788.178 547.378 789.058 555.076 787.914Z"/>
	<path fill="#F9D688" transform="matrix(0.426758 0 0 0.426758 -3.05176e-05 3.05176e-05)" d="M168.526 538.638L177.99 544.345C179.666 545.402 181.747 547.22 183.705 547.498C184.847 549.506 184.976 553.052 185.411 555.375L188.645 573.25L190.76 587.118C191.241 590.512 191.461 594.679 193.358 597.642C195.42 600.861 199.196 602.624 202.497 604.279C201.714 602.329 200.68 600.351 200.229 598.3C199.805 598.024 199.404 595.757 199.241 595.148L249.606 626.36L334.156 678.459L415 729.023L455.594 754.307C459.317 756.423 463.141 758.531 467.535 758.619L470.252 758.875L469.97 759.276C469.622 759.81 469.477 760.251 469.305 760.855C467.349 762.338 464.484 763.627 462 763.696C458.256 763.799 455.406 762.091 452.3 760.269L396.586 725.45L302.515 667.108L241.57 629.407L219.34 615.681C215.122 613.041 210.251 610.49 206.712 607.005L205.854 607.5C209.299 617.969 214.843 625.201 223.446 632.1L168.452 632.018L168.526 538.638Z"/>
	<path fill="#EB4420" transform="matrix(0.426758 0 0 0.426758 -3.05176e-05 3.05176e-05)" d="M188.303 525.21L229.943 549.753L227.331 557.256L230.999 559.552L228.25 559.335L228.237 560.855C227.862 561.015 227.322 561.176 227.007 561.429C227.734 571.971 230.927 584.897 239.152 592.186C246.46 598.663 255.854 602.028 263.218 608.526C268.942 614.057 276.587 618.301 283.317 622.551L313.097 641.25L430.219 715.131L465.2 737.799C468.523 739.979 473.96 744.74 477.782 745.503C476.929 749.249 473.555 755.141 470.245 757.25L467.535 758.619C463.141 758.531 459.317 756.423 455.594 754.307L415 729.023L334.156 678.459L249.606 626.36L199.241 595.148C199.694 593.659 198.171 588.273 197.896 586.456C194.819 566.124 190.065 545.678 188.303 525.21Z"/>
	<path fill="#F9D688" transform="matrix(0.426758 0 0 0.426758 -3.05176e-05 3.05176e-05)" d="M356.053 715.003C367.277 720.962 378.265 728.06 389.063 734.781C394.458 738.139 400.563 741.345 405.475 745.331L445.029 770.31C451.238 774.358 457.519 779.785 464.36 782.558C468.155 784.096 474.255 784.896 478.286 783.75C480.593 783.094 482.438 781.628 484.282 780.164L484.072 788.015L484.328 840.128L404.973 840.159L405.05 788.342L330.14 788.744C328.642 788.742 326.333 789.028 325.063 788.25L325.087 737.343C325.097 730.336 326.064 721.843 324.726 715.002L356.053 715.003Z"/>
	<path fill="#BD270F" transform="matrix(0.426758 0 0 0.426758 -3.05176e-05 3.05176e-05)" d="M405.475 745.331L445.029 770.31C451.238 774.358 457.519 779.785 464.36 782.558C468.155 784.096 474.255 784.896 478.286 783.75C480.593 783.094 482.438 781.628 484.282 780.164L484.072 788.015L405.27 788.012L405.475 745.331Z"/>
</svg>
